<svg id="Layer_1" data-name="Layer 1" xmlns="http://www.w3.org/2000/svg" viewBox="0 0 409.44 409.98"><defs><style>.cls-1{fill:#2978b5;}</style></defs><path class="cls-1" d="M86.48,0c7.33,2.18,14.68,4.34,20.64,9.52,1,.87,2.09,1.65,3,2.59Q137.62,39.55,165.05,67c14.6,14.71,16.47,36.05,4.67,51.57a34.58,34.58,0,0,1-16.12,12c-11.39,4.07-20.26,11-25.09,22.4a33.91,33.91,0,0,0-1.58,22.59c5.7,21.54,17.7,39.41,32.23,55.77,16.25,18.29,34.74,33.83,56.88,44.58,9.47,4.6,19.23,8.51,30.2,6.92,13.7-2,24.12-8.61,30.23-21.3,2.88-6,4.85-12.36,9.59-17.33a38.45,38.45,0,0,1,52.74-3c4.57,3.87,8.68,8.29,12.93,12.53,15,15,29.75,30.26,45.08,44.92,17.74,17,15.93,43.61-.08,59.6-11.7,11.69-23.52,23.27-35.06,35.13-10.75,11.05-24.06,15.82-39,16.53-20.46,1-39.81-4.24-58.68-11.46-31.41-12-59.86-29.36-86.65-49.48C123.72,308.68,77.89,261,41.77,204.45c-16.93-26.52-30.84-54.57-37.93-85.52a121.42,121.42,0,0,1-3-18.1c0-.63.07-1.36-.83-1.54V94.48a10.44,10.44,0,0,0,0-6.4v-4C.72,75.72,1.86,67.49,6.11,60a50.55,50.55,0,0,1,8.17-11.26c12.09-12,24.26-23.95,36.11-36.19C56.7,6,63.83,1.43,72.86,0Z"/></svg>